<?xml version="1.0" standalone="no"?>
<!DOCTYPE svg PUBLIC "-//W3C//DTD SVG 20010904//EN"
 "http://www.w3.org/TR/2001/REC-SVG-20010904/DTD/svg10.dtd">
<svg version="1.0" xmlns="http://www.w3.org/2000/svg"
 width="96.000000pt" height="96.000000pt" viewBox="0 0 96.000000 96.000000"
 preserveAspectRatio="xMidYMid meet">
<metadata>
Created by potrace 1.14, written by Peter Selinger 2001-2017
</metadata>
<g transform="translate(0.000000,96.000000) scale(0.100000,-0.100000)"
fill="#000000" stroke="none">
<path d="M424 870 c-39 -16 -76 -74 -195 -314 -136 -270 -146 -305 -110 -378
56 -116 212 -130 323 -30 l39 35 32 -30 c52 -50 95 -67 168 -68 80 0 128 28
160 93 35 72 25 108 -101 361 -132 265 -150 295 -193 321 -33 21 -87 25 -123
10z m109 -74 c36 -39 257 -486 263 -533 15 -112 -118 -160 -225 -82 -47 33
-49 40 -21 79 12 16 32 55 46 87 43 95 21 176 -57 215 -45 23 -86 23 -127 -2
-96 -58 -93 -159 8 -318 14 -21 13 -24 -20 -52 -35 -30 -85 -50 -128 -50 -65
0 -119 64 -108 129 7 43 231 493 263 527 29 32 76 32 106 0z m5 -302 c34 -34
13 -131 -44 -208 -14 -20 -14 -20 -28 0 -29 38 -59 108 -63 145 -4 32 0 42 24
65 22 20 35 25 61 21 18 -3 40 -14 50 -23z"/>
</g>
</svg>
